<?xml version="1.0" standalone="no"?>
<!DOCTYPE svg PUBLIC "-//W3C//DTD SVG 20010904//EN"
 "http://www.w3.org/TR/2001/REC-SVG-20010904/DTD/svg10.dtd">
<svg version="1.0" xmlns="http://www.w3.org/2000/svg"
 width="350.000000pt" height="350.000000pt" viewBox="0 0 350.000000 350.000000"
 preserveAspectRatio="xMidYMid meet">
<metadata>
Created by potrace 1.11, written by Peter Selinger 2001-2013
</metadata>
<g transform="translate(0.000000,350.000000) scale(0.100000,-0.100000)"
fill="#000000" stroke="none">
<path d="M1876 3482 c-4 -3 -118 -12 -193 -15 -24 0 -43 -4 -43 -7 0 -3 -15
-6 -32 -6 -18 -1 -49 -4 -68 -7 -39 -7 -156 -20 -182 -21 -10 0 -18 -3 -18 -6
0 -3 -12 -7 -26 -8 -15 -1 -41 -9 -57 -17 -17 -8 -36 -15 -44 -15 -7 0 -13 -4
-13 -8 0 -5 -7 -9 -15 -10 -8 -1 -22 -3 -30 -4 -8 -1 -15 -5 -15 -9 0 -4 -10
-11 -22 -15 -13 -4 -42 -20 -65 -35 -23 -16 -44 -29 -48 -29 -9 0 -83 -51
-125 -86 -63 -54 -175 -174 -162 -174 4 0 -1 -5 -10 -11 -10 -5 -18 -16 -18
-23 0 -8 -7 -19 -15 -26 -8 -7 -20 -31 -25 -54 -6 -22 -14 -48 -17 -56 -4 -8
-7 -17 -7 -20 -1 -3 -5 -11 -10 -19 -7 -10 -6 -12 3 -6 7 4 5 -4 -4 -19 -10
-14 -15 -26 -11 -26 3 0 1 -12 -5 -27 -5 -15 -12 -56 -15 -92 -6 -73 -11 -123
-14 -131 -1 -3 -2 -9 -1 -14 3 -13 13 -376 14 -481 1 -149 -4 -225 -14 -225
-6 0 -7 -5 -4 -10 4 -6 1 -18 -7 -27 -11 -14 -11 -16 0 -9 10 6 13 2 12 -15
-1 -13 -1 -26 0 -29 4 -8 10 -53 13 -87 1 -18 5 -33 9 -33 4 0 5 -7 1 -16 -3
-9 0 -20 8 -25 8 -5 9 -9 3 -9 -6 0 -10 -12 -8 -27 2 -16 6 -59 9 -98 4 -62
11 -110 15 -110 1 0 3 -33 4 -72 2 -48 10 -82 21 -100 24 -37 51 -63 59 -56 3
4 6 1 6 -5 0 -9 31 -19 85 -27 6 -1 12 -3 15 -4 3 -2 18 -5 34 -7 16 -3 34
-11 41 -17 16 -17 23 -37 40 -127 12 -60 14 -70 25 -89 6 -12 8 -21 4 -21 -3
0 -1 -7 6 -15 7 -8 10 -15 6 -15 -4 0 1 -11 10 -25 9 -14 13 -25 10 -25 -4 0
0 -10 8 -22 9 -12 16 -30 16 -40 0 -10 5 -18 10 -18 6 0 10 -5 10 -10 0 -6 15
-28 34 -48 19 -20 44 -48 55 -62 51 -61 106 -120 112 -120 4 0 24 -17 46 -38
86 -81 121 -111 127 -105 3 3 8 -2 12 -11 3 -9 12 -16 19 -16 7 0 15 -3 17 -7
5 -12 66 -53 78 -53 5 0 10 -4 10 -10 0 -5 9 -10 19 -10 11 0 22 -4 25 -9 3
-5 17 -12 30 -15 14 -3 38 -11 53 -17 15 -6 29 -10 31 -10 1 1 16 -6 32 -14
17 -9 30 -12 30 -8 0 4 5 2 11 -4 6 -6 18 -9 25 -6 8 3 14 1 14 -3 0 -23 214
-21 250 1 6 3 10 0 10 -7 0 -10 2 -10 8 -1 5 7 20 14 35 15 15 1 27 6 27 11 0
4 4 6 9 3 10 -7 56 28 111 84 60 61 130 142 130 151 0 4 8 15 17 24 28 29 115
149 124 173 5 12 13 22 19 22 5 0 9 3 8 8 -1 4 5 23 14 42 8 19 27 60 41 91
23 52 47 123 46 142 0 4 7 20 15 35 16 31 34 77 41 107 21 91 33 117 66 145
19 16 31 60 34 123 1 40 4 72 5 72 3 0 6 45 11 143 1 35 6 65 10 68 4 2 6 13
4 24 -2 11 1 20 7 20 7 0 7 4 1 13 -13 16 -7 115 8 133 6 8 8 14 4 14 -5 0 1
8 12 18 28 24 31 40 17 80 -8 24 -8 46 -2 71 5 20 10 42 10 49 1 6 6 12 11 12
5 0 7 7 3 15 -3 8 -2 15 3 15 11 0 8 191 -3 209 -5 8 -5 12 0 9 8 -5 12 67 13
227 0 102 -3 165 -9 165 -3 0 -5 14 -4 30 1 17 -1 30 -4 30 -4 0 -8 10 -9 23
-4 49 -21 114 -41 160 -11 26 -19 47 -17 47 5 0 -16 51 -60 145 -17 39 -40 87
-49 108 -9 20 -22 37 -27 37 -6 0 -9 5 -7 12 2 6 -9 25 -24 42 -15 17 -28 36
-28 43 0 7 -4 13 -8 13 -5 0 -15 11 -22 25 -7 14 -18 25 -24 25 -6 0 -17 9
-24 20 -7 11 -18 20 -25 20 -15 0 -97 41 -115 58 -8 7 -17 10 -22 7 -4 -3 -26
2 -48 9 -22 8 -43 12 -46 9 -3 -4 -6 -2 -6 4 0 6 -10 9 -22 9 -13 -1 -27 0
-33 3 -10 6 -26 10 -60 16 -33 5 -67 13 -115 24 -24 5 -46 8 -49 6 -2 -3 -10
0 -18 6 -10 9 -13 8 -13 0 0 -7 -5 -9 -10 -6 -11 7 -109 13 -114 7z"/>
</g>
</svg>
